<?xml version="1.0" standalone="no"?><!-- Generator: Gravit.io --><svg xmlns="http://www.w3.org/2000/svg" xmlns:xlink="http://www.w3.org/1999/xlink" style="isolation:isolate" viewBox="0 0 1000 1000" width="1000" height="1000"><defs><clipPath id="_clipPath_av6UYT0GGQzLNtRESBCoHcR0aqv8MxfR"><rect width="1000" height="1000"/></clipPath></defs><g clip-path="url(#_clipPath_av6UYT0GGQzLNtRESBCoHcR0aqv8MxfR)"><path d=" M 0 500 C 0 224.042 224.042 0 500 0 C 775.958 0 1000 224.042 1000 500 C 1000 775.958 775.958 1000 500 1000 C 224.042 1000 0 775.958 0 500 Z  M 252.902 175.293 L 775.852 175.293 L 386.691 800.293 L 512.668 800.293 L 512.668 800.293 Q 602.023 800.293 637.668 789.063 L 637.668 789.063 L 637.668 789.063 Q 695.773 771.484 737.766 724.365 L 737.766 724.365 L 737.766 724.365 Q 779.758 677.246 795.871 598.145 L 795.871 598.145 L 814.914 598.145 L 788.059 837.402 L 181.613 837.402 L 571.262 211.426 L 473.117 211.426 L 473.117 211.426 Q 415.988 211.426 397.922 214.844 L 397.922 214.844 L 397.922 214.844 Q 363.742 221.191 333.713 239.99 L 333.713 239.99 L 333.713 239.99 Q 303.684 258.789 283.908 290.039 L 283.908 290.039 L 283.908 290.039 Q 264.133 321.289 252.902 369.141 L 252.902 369.141 L 234.836 369.141 L 252.902 175.293 Z " fill-rule="evenodd" fill="rgb(0,0,0)"/></g></svg>