<?xml version="1.0" standalone="no"?><!-- Generator: Gravit.io --><svg xmlns="http://www.w3.org/2000/svg" xmlns:xlink="http://www.w3.org/1999/xlink" style="isolation:isolate" viewBox="0 0 256 256" width="256" height="256"><defs><clipPath id="_clipPath_iBWGNFKhJ9kuKU6p0SBT9LYu8o2xawRF"><rect width="256" height="256"/></clipPath></defs><mask id="_mask_mX2jUEyxov8HkERNJn2fgdok4kDlgQ1i" x="-200%" y="-200%" width="400%" height="400%"><rect x="0" y="0" width="100%" height="100%" style="fill:white;"/><rect x="128" y="48" width="64" height="16" transform="matrix(1,0,0,1,0,0)" fill="black" stroke="none"/></mask><mask id="_mask_Qnj2ZIObpkWOMgv3VdN6rTpYQsdi3wIW" x="-200%" y="-200%" width="400%" height="400%"><rect x="0" y="0" width="100%" height="100%" style="fill:white;"/><rect x="64" y="16" width="64" height="16" transform="matrix(1,0,0,1,0,0)" fill="black" stroke="none"/></mask><g clip-path="url(#_clipPath_iBWGNFKhJ9kuKU6p0SBT9LYu8o2xawRF)" mask="url(#_mask_Qnj2ZIObpkWOMgv3VdN6rTpYQsdi3wIW)"><mask id="_mask_3mPBI3d3A7AkrAHFRDbBN5keL48HatNm" x="-200%" y="-200%" width="400%" height="400%"><rect x="0" y="0" width="100%" height="100%" style="fill:white;"/><path d=" M 83.983 128 C 83.983 103.707 103.707 83.983 128 83.983 C 152.293 83.983 172.017 103.707 172.017 128 C 172.017 152.293 152.293 172.017 128 172.017 C 103.707 172.017 83.983 152.293 83.983 128 Z " fill="black" stroke="none"/></mask><g id="Group" mask="url(#_mask_3mPBI3d3A7AkrAHFRDbBN5keL48HatNm)"><path d=" M 97.188 0 L 158.988 0.176 L 244.204 255.824 L 181.348 256 C 178.932 252.017 177.764 247.396 177.298 242.795 L 177.298 242.795 L 167.615 208.11 L 88.209 208.286 C 84.374 224.374 79.883 240.309 74.652 256 L 74.652 256 L 11.796 255.824 L 97.188 0 Z " fill="rgb(0,0,0)"/><path d=" M 105.992 128 C 105.992 115.853 115.853 105.992 128 105.992 C 140.147 105.992 150.008 115.853 150.008 128 C 150.008 140.147 140.147 150.008 128 150.008 C 115.853 150.008 105.992 140.147 105.992 128 Z " fill="rgb(0,0,0)"/></g></g></svg>