<svg xmlns="http://www.w3.org/2000/svg" style="isolation:isolate" viewBox="0 0 32 32" width="32" height="32"><defs><clipPath id="a"><path d="M0 0h32v32H0z"/></clipPath></defs><g clip-path="url(#a)"><path fill="#F9F9F9" d="M0 0h32v32H0z"/><path d="M13 3l6 0c0 0 0 0 0 0l9 26-6 0-1-4-9 0c0 0 0 0-1 4l-6 0L13 3zm-1.34 13
c0-2.467 2.003-4.47 4.47-4.47 2.467 0 4.47 2.003 4.47 4.47 0 2.467-2.003 4.47-4.47 4.47-2.467 0-4.47-2.003-4.47-4.47zm2.235 0c0-1.234 1-2.235 2.235-2.235 1.234 0 2.235 1 2.235 2.235 0 1.234-1 2.235-2.235 2.235-1.234 0-2.235-1-2.235-2.235z" fill-rule="evenodd" fill="#F74A4D"/></g></svg>
