<svg xmlns="http://www.w3.org/2000/svg" style="isolation:isolate" width="20" height="20"><defs><clipPath id="a"><path d="M0 0h20v20H0z"/></clipPath><linearGradient id="c" x1="0%" y1="0%" y2="0%" gradientTransform="rotate(85)"><stop offset="0%" stop-color="#160e5b"/><stop offset="66%" stop-color="#b92c70"/><stop offset="100%" stop-color="#d55d78"/></linearGradient></defs><g clip-path="url(#a)"><clipPath id="b"><path d="M0 0h20v20H0V0z"/></clipPath><g clip-path="url(#b)"><path d="M1 0h18a1 1 0 0 1 1 1v18a1 1 0 0 1-1 1H1a1 1 0 0 1-1-1V1a1 1 0 0 1 1-1z" fill="url(#c)"/><path d="M6.182 13.818H13.9v1.273H6.182v-1.273zm-1.273-.727h1.273v1.273H4.909v-1.273zm-1.091-.546h1.091v1.273H3.818v-1.273zm9.273-8.727h1.273v2.364h-1.273V3.818zm-8.182 0h1.273v2.364H4.909V3.818z" fill="#FFF"/><path d="M13.8 13.091h1.109v1.273H13.8v-1.273zm1.109-.546h1.273v1.273h-1.273v-1.273zM12.545 20v-1.273h1.273V20h-1.273zM10 2.545V1.273h1.273v1.272H10zm.545-1.272V.545h1.273v.728h-1.273zm.728-.728V0h1.272v.545h-1.272zM9.455 3.818V2.545h1.09v1.273h-1.09zm-.728 1.273V3.818H10v1.273H8.727zm-.545 1.818V5.091h1.273v1.818H8.182zm3.636 11.818v-1.818h1.273v1.818h-1.273zm-.545-1.818v-5.636h1.272v5.636h-1.272zM7.455 10h5.09v1.273h-5.09V10zm0 0V6.909h1.272V10H7.455z" fill="#FFF"/></g></g></svg>