<?xml version="1.0" standalone="no"?><!-- Generator: Gravit.io --><svg xmlns="http://www.w3.org/2000/svg" xmlns:xlink="http://www.w3.org/1999/xlink" style="isolation:isolate" viewBox="0 0 32 32" width="32" height="32"><defs><clipPath id="_clipPath_rcZbjKXjenjUoGNDxhGY0ctv66cPoQSJ"><rect width="32" height="32"/></clipPath></defs><g clip-path="url(#_clipPath_rcZbjKXjenjUoGNDxhGY0ctv66cPoQSJ)"><clipPath id="_clipPath_tVotwK5exr2MUzE46JVpTq4RuFRkqt4s"><rect x="0" y="0" width="32" height="32" transform="matrix(1,0,0,1,0,0)" fill="rgb(255,255,255)"/></clipPath><g clip-path="url(#_clipPath_tVotwK5exr2MUzE46JVpTq4RuFRkqt4s)"><g id="Group"><clipPath id="_clipPath_TmVPOsP6wrkD7OOvzommCT8Ws6fwczTu"><path d=" M 0 0 L 32 0 L 32 32 L 0 32 L 0 0 L 0 0 Z " fill="rgb(255,255,255)"/></clipPath><g clip-path="url(#_clipPath_TmVPOsP6wrkD7OOvzommCT8Ws6fwczTu)"><g id="Group"><g id="Group"><path d=" M 12.5 3 Q 19.5 3 19.5 3 L 27.5 29 L 20.5 29 L 19.5 25 L 12.5 25 Q 12.5 25 11.5 29 L 4.5 29" fill-rule="evenodd" fill="rgb(247,74,77)"/><path d=" M 11.5 16 C 11.5 13.516 13.516 11.5 16 11.5 C 18.484 11.5 20.5 13.516 20.5 16 C 20.5 18.484 18.484 20.5 16 20.5 C 13.516 20.5 11.5 18.484 11.5 16 Z " fill-rule="evenodd" fill="rgb(255,255,255)"/><path d=" M 13.75 16 C 13.75 14.757 14.765 13.75 16 13.75 C 17.235 13.75 18.25 14.757 18.25 16 C 18.25 17.243 17.235 18.25 16 18.25 C 14.765 18.25 13.75 17.243 13.75 16 Z " fill-rule="evenodd" fill="rgb(247,74,77)"/></g></g></g></g></g></g></svg>