<?xml version="1.0" standalone="no"?><!-- Generator: Gravit.io --><svg xmlns="http://www.w3.org/2000/svg" xmlns:xlink="http://www.w3.org/1999/xlink" style="isolation:isolate" viewBox="0 0 608 608" width="608" height="608"><defs><clipPath id="_clipPath_OpUAnqCob6jhNPtCbhKmidG0rbEiWr9S"><rect width="608" height="608"/></clipPath></defs><g clip-path="url(#_clipPath_OpUAnqCob6jhNPtCbhKmidG0rbEiWr9S)"><g style="mix-blend-mode:subtract;"><path d=" M 80 111 L 96 111 L 96 127 L 80 127 L 80 111 Z  M 80 143 L 96 143 L 96 159 L 80 159 L 80 143 Z  M 48 143 L 64 143 L 64 159 L 48 159 L 48 143 Z  M 16 175 L 32 175 L 32 191 L 16 191 L 16 175 Z  M 32 223 L 48 223 L 48 239 L 32 239 L 32 223 Z  M 64 255 L 80 255 L 80 271 L 64 271 L 64 255 Z  M 48 239 L 64 239 L 64 255 L 48 255 L 48 239 Z  M 48 207 L 64 207 L 64 223 L 48 223 L 48 207 Z  M 64 223 L 80 223 L 80 239 L 64 239 L 64 223 Z  M 208 335 L 224 335 L 224 351 L 208 351 L 208 335 Z  M 96 255 L 112 255 L 112 271 L 96 271 L 96 255 Z  M 96 223 L 112 223 L 112 239 L 96 239 L 96 223 Z  M 128 223 L 144 223 L 144 239 L 128 239 L 128 223 Z  M 32 255 L 48 255 L 48 271 L 32 271 L 32 255 Z  M 48 271 L 64 271 L 64 287 L 48 287 L 48 271 Z  M 48 303 L 64 303 L 64 319 L 48 319 L 48 303 Z  M 32 287 L 48 287 L 48 303 L 32 303 L 32 287 Z  M 32 287 L 80 287 L 80 303 L 32 303 L 32 287 Z  M 16 239 L 32 239 L 32 255 L 16 255 L 16 239 Z  M 176 207 L 192 207 L 192 255 L 176 255 L 176 207 Z  M 112 335 L 128 335 L 128 383 L 112 383 L 112 335 Z  M 64 319 L 80 319 L 80 367 L 64 367 L 64 319 Z  M 128 255 L 144 255 L 144 303 L 128 303 L 128 255 Z  M 176 159 L 176 143 L 224 143 L 224 159 L 176 159 Z  M 64 319 L 80 319 L 80 367 L 64 367 L 64 319 Z  M 64 319 L 80 319 L 80 367 L 64 367 L 64 319 Z  M 96 287 L 112 287 L 112 335 L 96 335 L 96 287 Z  M 160 223 L 176 223 L 176 271 L 160 271 L 160 223 Z  M 192 207 L 208 207 L 208 239 L 192 239 L 192 207 Z  M 128 431 L 144 431 L 144 447 L 128 447 L 128 431 Z  M 64 399 L 80 399 L 80 415 L 64 415 L 64 399 Z  M 176 399 L 192 399 L 192 415 L 176 415 L 176 399 Z  M 144 399 L 160 399 L 160 415 L 144 415 L 144 399 Z  M 112 399 L 128 399 L 128 415 L 112 415 L 112 399 Z  M 128 383 L 144 383 L 144 399 L 128 399 L 128 383 Z  M 96 383 L 112 383 L 112 399 L 96 399 L 96 383 Z  M 16 303 L 32 303 L 32 319 L 16 319 L 16 303 Z  M 48 335 L 64 335 L 64 351 L 48 351 L 48 335 Z  M 16 271 L 32 271 L 32 287 L 16 287 L 16 271 Z  M 32 287 L 48 287 L 48 303 L 32 303 L 32 287 Z  M 0 255 L 16 255 L 16 271 L 0 271 L 0 255 Z  M 0 223 L 16 223 L 16 239 L 0 239 L 0 223 Z  M 16 207 L 32 207 L 32 223 L 16 223 L 16 207 Z  M 80 431 L 96 431 L 96 447 L 80 447 L 80 431 Z  M 96 447 L 112 447 L 112 463 L 96 463 L 96 447 Z  M 112 463 L 128 463 L 128 479 L 112 479 L 112 463 Z  M 144 463 L 160 463 L 160 479 L 144 479 L 144 463 Z  M 176 479 L 192 479 L 192 495 L 176 495 L 176 479 Z  M 208 463 L 224 463 L 224 479 L 208 479 L 208 463 Z  M 224 479 L 240 479 L 240 495 L 224 495 L 224 479 Z  M 240 463 L 256 463 L 256 479 L 240 479 L 240 463 Z  M 256 479 L 272 479 L 272 495 L 256 495 L 256 479 Z  M 288 479 L 304 479 L 304 495 L 288 495 L 288 479 Z  M 64 159 L 80 159 L 80 175 L 64 175 L 64 159 Z  M 80 175 L 96 175 L 96 399 L 80 399 L 80 175 Z  M 48 175 L 64 175 L 64 191 L 48 191 L 48 175 Z  M 64 191 L 464 191 L 464 207 L 64 207 L 64 191 Z  M 112 143 L 128 143 L 128 159 L 112 159 L 112 143 Z  M 128 159 L 272 159 L 272 175 L 128 175 L 128 159 Z  M 256 383 L 400 383 L 400 399 L 256 399 L 256 383 Z  M 144 143 L 160 143 L 160 287 L 144 287 L 144 143 Z  M 208 207 L 256 207 L 256 319 L 208 319 L 208 207 Z  M 272 207 L 320 207 L 320 319 L 272 319 L 272 207 Z  M 144 111 L 160 111 L 160 127 L 144 127 L 144 111 Z  M 176 111 L 192 111 L 192 127 L 176 127 L 176 111 Z  M 96 351 L 112 351 L 112 367 L 96 367 L 96 351 Z  M 208 111 L 224 111 L 224 127 L 208 127 L 208 111 Z  M 192 127 L 208 127 L 208 143 L 192 143 L 192 127 Z  M 144 159 L 160 159 L 160 175 L 144 175 L 144 159 Z  M 240 111 L 256 111 L 256 127 L 240 127 L 240 111 Z  M 224 127 L 240 127 L 240 143 L 224 143 L 224 127 Z  M 160 175 L 176 175 L 176 191 L 160 191 L 160 175 Z  M 176 175 L 192 175 L 192 191 L 176 191 L 176 175 Z  M 208 175 L 224 175 L 224 191 L 208 191 L 208 175 Z  M 272 175 L 288 175 L 288 191 L 272 191 L 272 175 Z  M 288 159 L 304 159 L 304 175 L 288 175 L 288 159 Z  M 304 143 L 320 143 L 320 159 L 304 159 L 304 143 Z  M 304 111 L 320 111 L 320 127 L 304 127 L 304 111 Z  M 272 111 L 288 111 L 288 127 L 272 127 L 272 111 Z  M 272 335 L 288 335 L 288 351 L 272 351 L 272 335 Z  M 304 335 L 320 335 L 320 351 L 304 351 L 304 335 Z  M 304 367 L 320 367 L 320 383 L 304 383 L 304 367 Z  M 304 399 L 320 399 L 320 415 L 304 415 L 304 399 Z  M 336 335 L 352 335 L 352 351 L 336 351 L 336 335 Z  M 336 367 L 352 367 L 352 383 L 336 383 L 336 367 Z  M 368 367 L 384 367 L 384 383 L 368 383 L 368 367 Z  M 368 335 L 384 335 L 384 351 L 368 351 L 368 335 Z  M 400 367 L 416 367 L 416 383 L 400 383 L 400 367 Z  M 400 335 L 416 335 L 416 351 L 400 351 L 400 335 Z  M 336 399 L 352 399 L 352 415 L 336 415 L 336 399 Z  M 224 351 L 272 351 L 272 367 L 224 367 L 224 351 Z  M 192 287 L 208 287 L 208 303 L 192 303 L 192 287 Z  M 176 271 L 192 271 L 192 287 L 176 287 L 176 271 Z  M 192 255 L 208 255 L 208 271 L 192 271 L 192 255 Z  M 304 175 L 320 175 L 320 191 L 304 191 L 304 175 Z  M 336 175 L 384 175 L 384 191 L 336 191 L 336 175 Z  M 256 319 L 432 319 L 432 335 L 256 335 L 256 319 Z  M 288 351 L 432 351 L 432 367 L 288 367 L 288 351 Z  M 400 143 L 416 143 L 416 191 L 400 191 L 400 143 Z  M 272 367 L 288 367 L 288 383 L 272 383 L 272 367 Z  M 272 399 L 288 399 L 288 415 L 272 415 L 272 399 Z  M 208 319 L 240 319 L 240 335 L 208 335 L 208 319 Z  M 144 191 L 160 191 L 160 207 L 144 207 L 144 191 Z  M 112 191 L 128 191 L 128 207 L 112 207 L 112 191 Z  M 80 191 L 96 191 L 96 207 L 80 207 L 80 191 Z  M 112 175 L 128 175 L 128 319 L 112 319 L 112 175 Z  M 256 207 L 272 207 L 272 239 L 256 239 L 256 207 Z  M 256 255 L 272 255 L 272 303 L 256 303 L 256 255 Z  M 432 143 L 448 143 L 448 159 L 432 159 L 432 143 Z  M 320 207 L 480 207 L 480 223 L 320 223 L 320 207 Z  M 368 223 L 528 223 L 528 239 L 368 239 L 368 223 Z  M 240 335 L 256 335 L 256 351 L 240 351 L 240 335 Z  M 240 367 L 256 367 L 256 383 L 240 383 L 240 367 Z  M 240 175 L 256 175 L 256 191 L 240 191 L 240 175 Z  M 240 143 L 288 143 L 288 159 L 240 159 L 240 143 Z  M 256 127 L 368 127 L 368 143 L 256 143 L 256 127 Z  M 384 127 L 432 127 L 432 143 L 384 143 L 384 127 Z  M 464 143 L 480 143 L 480 159 L 464 159 L 464 143 Z  M 496 207 L 512 207 L 512 223 L 496 223 L 496 207 Z  M 528 239 L 544 239 L 544 287 L 528 287 L 528 239 Z  M 496 159 L 512 159 L 512 175 L 496 175 L 496 159 Z  M 336 303 L 384 303 L 384 319 L 336 319 L 336 303 Z  M 512 255 L 528 255 L 528 271 L 512 271 L 512 255 Z  M 320 223 L 352 223 L 352 239 L 320 239 L 320 223 Z  M 528 175 L 544 175 L 544 191 L 528 191 L 528 175 Z  M 416 287 L 432 287 L 432 319 L 416 319 L 416 287 Z  M 432 271 L 448 271 L 448 319 L 432 319 L 432 271 Z  M 400 303 L 416 303 L 416 319 L 400 319 L 400 303 Z  M 464 239 L 512 239 L 512 255 L 464 255 L 464 239 Z  M 400 239 L 448 239 L 448 255 L 400 255 L 400 239 Z  M 336 271 L 352 271 L 352 303 L 336 303 L 336 271 Z  M 336 239 L 352 239 L 352 255 L 336 255 L 336 239 Z  M 320 255 L 336 255 L 336 303 L 320 303 L 320 255 Z  M 560 207 L 576 207 L 576 223 L 560 223 L 560 207 Z  M 576 223 L 592 223 L 592 239 L 576 239 L 576 223 Z  M 592 239 L 608 239 L 608 255 L 592 255 L 592 239 Z  M 576 287 L 592 287 L 592 303 L 576 303 L 576 287 Z  M 560 271 L 576 271 L 576 303 L 560 303 L 560 271 Z  M 592 287 L 608 287 L 608 319 L 592 319 L 592 287 Z  M 128 127 L 144 127 L 144 143 L 128 143 L 128 127 Z " fill-rule="evenodd" fill="rgb(0,0,0)"/></g></g></svg>