<?xml version="1.0" standalone="no"?><!-- Generator: Gravit.io --><svg xmlns="http://www.w3.org/2000/svg" xmlns:xlink="http://www.w3.org/1999/xlink" style="isolation:isolate" viewBox="0 0 326 384" width="326" height="384"><defs><clipPath id="_clipPath_J0zMImxAUt2J2nmEzgvPYAQPbFfhcYHw"><rect width="326" height="384"/></clipPath></defs><g clip-path="url(#_clipPath_J0zMImxAUt2J2nmEzgvPYAQPbFfhcYHw)"><rect width="326" height="384" style="fill:rgb(0,0,0)"/><g style="mix-blend-mode:exclusion;"><path d=" M 29.225 362.484 L 0 362.484 L 0 204.814 L 29.225 204.814 L 29.225 362.484 Z  M 74.051 383.805 L 45.554 383.805 L 112.22 204.814 L 141.029 204.814 L 74.051 383.805 Z  M 149.35 284.065 L 149.35 284.065 L 149.35 284.065 Q 149.35 267.633 155.486 252.656 L 155.486 252.656 L 155.486 252.656 Q 161.622 237.68 172.334 226.863 L 172.334 226.863 L 172.334 226.863 Q 183.047 216.047 196.047 209.807 L 196.047 209.807 L 196.047 209.807 Q 212.896 201.694 231.825 201.694 L 231.825 201.694 L 231.825 201.694 Q 249.505 201.694 264.69 208.507 L 264.69 208.507 L 264.69 208.507 Q 279.875 215.319 290.119 225.771 L 290.119 225.771 L 290.119 225.771 Q 300.363 236.224 306.188 248.496 L 306.188 248.496 L 306.188 248.496 Q 314.196 265.137 314.196 283.857 L 314.196 283.857 L 314.196 283.857 Q 314.196 297.794 309.88 310.17 L 309.88 310.17 L 309.88 310.17 Q 305.563 322.547 298.439 332.063 L 298.439 332.063 L 298.439 332.063 Q 291.315 341.58 281.383 349.276 L 281.383 349.276 L 281.383 349.276 Q 271.45 356.972 258.45 361.34 L 258.45 361.34 L 258.45 361.34 Q 245.449 365.708 231.825 365.708 L 231.825 365.708 L 231.825 365.708 Q 213.312 365.708 198.231 358.688 L 198.231 358.688 L 198.231 358.688 Q 183.151 351.668 172.906 341.216 L 172.906 341.216 L 172.906 341.216 Q 162.662 330.763 157.046 318.699 L 157.046 318.699 L 157.046 318.699 Q 149.35 302.058 149.35 284.065 Z  M 178.575 283.857 L 178.575 283.857 L 178.575 283.857 Q 178.575 295.194 182.735 304.97 L 182.735 304.97 L 182.735 304.97 Q 186.895 314.747 193.707 321.923 L 193.707 321.923 L 193.707 321.923 Q 200.52 329.099 210.244 333.779 L 210.244 333.779 L 210.244 333.779 Q 219.968 338.459 231.825 338.459 L 231.825 338.459 L 231.825 338.459 Q 245.553 338.459 258.138 331.283 L 258.138 331.283 L 258.138 331.283 Q 270.722 324.107 277.898 311.106 L 277.898 311.106 L 277.898 311.106 Q 285.075 298.106 285.075 283.753 L 285.075 283.753 L 285.075 283.753 Q 285.075 269.401 277.898 256.348 L 277.898 256.348 L 277.898 256.348 Q 270.722 243.296 258.19 236.12 L 258.19 236.12 L 258.19 236.12 Q 245.657 228.943 231.825 228.943 L 231.825 228.943 L 231.825 228.943 Q 219.76 228.943 210.244 233.572 L 210.244 233.572 L 210.244 233.572 Q 200.728 238.2 193.655 245.48 L 193.655 245.48 L 193.655 245.48 Q 186.583 252.76 182.579 262.901 L 182.579 262.901 L 182.579 262.901 Q 178.575 273.041 178.575 283.857 Z " fill-rule="evenodd" fill="rgb(77,74,232)"/></g><g style="mix-blend-mode:exclusion;"><path d=" M 140.351 107.942 L 74.308 107.942 L 74.308 80.693 L 177.168 80.693 L 177.168 80.693 Q 177.272 97.126 172.28 111.01 L 172.28 111.01 L 172.28 111.01 Q 167.288 124.895 155.484 137.583 L 155.484 137.583 L 155.484 137.583 Q 143.679 150.272 127.766 157.24 L 127.766 157.24 L 127.766 157.24 Q 111.854 164.208 91.989 164.208 L 91.989 164.208 L 91.989 164.208 Q 72.332 164.208 58.084 157.396 L 58.084 157.396 L 58.084 157.396 Q 43.835 150.584 33.019 139.612 L 33.019 139.612 L 33.019 139.612 Q 22.203 128.639 16.378 116.575 L 16.378 116.575 L 16.378 116.575 Q 8.89 100.766 8.89 82.669 L 8.89 82.669 L 8.89 82.669 Q 8.89 69.045 13.05 56.72 L 13.05 56.72 L 13.05 56.72 Q 17.21 44.396 24.647 34.516 L 24.647 34.516 L 24.647 34.516 Q 32.083 24.635 42.535 16.679 L 42.535 16.679 L 42.535 16.679 Q 52.988 8.723 66.352 4.458 L 66.352 4.458 L 66.352 4.458 Q 79.717 0.194 93.549 0.194 L 93.549 0.194 L 93.549 0.194 Q 108.214 0.194 120.746 4.615 L 120.746 4.615 L 120.746 4.615 Q 133.279 9.035 143.471 16.731 L 143.471 16.731 L 143.471 16.731 Q 153.663 24.427 160.736 33.892 L 160.736 33.892 L 160.736 33.892 Q 165.52 40.236 169.264 49.596 L 169.264 49.596 L 134.319 49.596 L 134.319 49.596 Q 127.662 39.716 116.638 33.58 L 116.638 33.58 L 116.638 33.58 Q 105.614 27.443 92.405 27.443 L 92.405 27.443 L 92.405 27.443 Q 77.013 27.443 64.532 34.828 L 64.532 34.828 L 64.532 34.828 Q 52.052 42.212 45.083 55.472 L 45.083 55.472 L 45.083 55.472 Q 38.115 68.733 38.115 82.357 L 38.115 82.357 L 38.115 82.357 Q 38.115 96.086 45.239 109.242 L 45.239 109.242 L 45.239 109.242 Q 52.364 122.399 65.104 129.679 L 65.104 129.679 L 65.104 129.679 Q 77.845 136.959 92.925 136.959 L 92.925 136.959 L 92.925 136.959 Q 105.198 136.959 114.922 132.435 L 114.922 132.435 L 114.922 132.435 Q 124.646 127.911 131.511 120.631 L 131.511 120.631 L 131.511 120.631 Q 136.191 115.639 140.351 107.942 L 140.351 107.942 Z  M 217.626 160.984 L 182.889 160.984 L 237.179 82.357 L 182.889 3.314 L 217.626 3.314 L 254.443 58.333 L 292.405 3.314 L 325.998 3.314 L 271.5 82.357 L 325.998 160.984 L 292.405 160.984 L 254.443 106.486 L 217.626 160.984 Z " fill-rule="evenodd" fill="rgb(77,74,232)"/></g></g></svg>