<?xml version="1.0" standalone="no"?><!-- Generator: Gravit.io --><svg xmlns="http://www.w3.org/2000/svg" xmlns:xlink="http://www.w3.org/1999/xlink" style="isolation:isolate" viewBox="0 0 110 110" width="110" height="110"><defs><clipPath id="_clipPath_vEfAhWq7aNwGDLXzY3LYG3wjTVQNOG8l"><rect width="110" height="110"/></clipPath></defs><mask id="_mask_Ngz27udITqorzZqW1tVA9uTQ8gYtEMpc" x="-200%" y="-200%" width="400%" height="400%"><rect x="0" y="0" width="100%" height="100%" style="fill:white;"/><path d=" M 107 0 L 110 0 L 110 1 L 107 1 L 107 0 Z  M 108 1 L 110 1 L 110 2 L 108 2 L 108 1 Z  M 109 4 L 109 2 L 110 2 L 110 4 L 109 4 Z " fill-rule="evenodd" fill="black" stroke="none"/></mask><mask id="_mask_xxonA3k9ciMzDVIEc7sxHOh0dLwGLNU4" x="-200%" y="-200%" width="400%" height="400%"><rect x="0" y="0" width="100%" height="100%" style="fill:white;"/><path d=" M 107 110 L 110 110 L 110 109 L 107 109 L 107 110 Z  M 108 109 L 110 109 L 110 108 L 108 108 L 108 109 Z  M 109 106 L 109 108 L 110 108 L 110 106 L 109 106 Z " fill-rule="evenodd" fill="black" stroke="none"/></mask><mask id="_mask_eX50KDlEPxED1a5UfWqTaYrALOWbUShT" x="-200%" y="-200%" width="400%" height="400%"><rect x="0" y="0" width="100%" height="100%" style="fill:white;"/><path d=" M 3 110 L 0 110 L 0 109 L 3 109 L 3 110 Z  M 2 109 L 0 109 L 0 108 L 2 108 L 2 109 Z  M 1 106 L 1 108 L 0 108 L 0 106 L 1 106 Z " fill-rule="evenodd" fill="black" stroke="none"/></mask><mask id="_mask_27e11sHxUVWJhmNHai9DRACFBHm2pCzd" x="-200%" y="-200%" width="400%" height="400%"><rect x="0" y="0" width="100%" height="100%" style="fill:white;"/><path d=" M 3 0 L 0 0 L 0 1 L 3 1 L 3 0 Z  M 2 1 L 0 1 L 0 2 L 2 2 L 2 1 Z  M 1 4 L 1 2 L 0 2 L 0 4 L 1 4 Z " fill-rule="evenodd" fill="black" stroke="none"/></mask><g clip-path="url(#_clipPath_vEfAhWq7aNwGDLXzY3LYG3wjTVQNOG8l)" mask="url(#_mask_27e11sHxUVWJhmNHai9DRACFBHm2pCzd)"><rect x="0" y="0" width="110" height="110" transform="matrix(1,0,0,1,0,0)" fill="rgb(0,0,0)"/><rect x="76" y="72" width="6" height="7" transform="matrix(1,0,0,1,0,0)" fill="rgb(255,255,255)"/><rect x="82" y="69" width="7" height="7" transform="matrix(1,0,0,1,0,0)" fill="rgb(255,255,255)"/><rect x="69" y="103" width="7" height="7" transform="matrix(0,-1,1,0,-34,179)" fill="rgb(255,255,255)"/><rect x="55" y="7" width="7" height="7" transform="matrix(0,-1,1,0,48,69)" fill="rgb(255,255,255)"/><rect x="59.5" y="1.5" width="4" height="7" transform="matrix(0,-1,1,0,56.5,66.5)" fill="rgb(255,255,255)"/><rect x="64" y="-2" width="3" height="7" transform="matrix(0,-1,1,0,64,67)" fill="rgb(255,255,255)"/><rect x="51.5" y="14.5" width="7" height="6" transform="matrix(0,-1,1,0,37.5,72.5)" fill="rgb(255,255,255)"/><rect x="48" y="21" width="7" height="7" transform="matrix(0,-1,1,0,27,76)" fill="rgb(255,255,255)"/><rect x="43.5" y="29.5" width="10" height="7" transform="matrix(0,-1,1,0,15.5,81.5)" fill="rgb(255,255,255)"/><rect x="63.5" y="94.5" width="10" height="7" transform="matrix(0,-1,1,0,-29.5,166.5)" fill="rgb(255,255,255)"/><rect x="50" y="74" width="31" height="7" transform="matrix(0,-1,1,0,-12,143)" fill="rgb(255,255,255)"/><rect x="41" y="55" width="28" height="7" transform="matrix(1,0,0,1,0,0)" fill="rgb(255,255,255)"/><rect x="36" y="43" width="17" height="7" transform="matrix(0,-1,1,0,-2,91)" fill="rgb(255,255,255)"/><rect x="34" y="76" width="42" height="7" transform="matrix(1,0,0,1,0,0)" fill="rgb(255,255,255)"/><rect x="27" y="72" width="7" height="7" transform="matrix(1,0,0,1,0,0)" fill="rgb(255,255,255)"/><rect x="21" y="69" width="6" height="7" transform="matrix(1,0,0,1,0,0)" fill="rgb(255,255,255)"/><rect x="72" y="21" width="7" height="13" transform="matrix(1,0,0,1,0,0)" fill="rgb(255,255,255)"/><rect x="27" y="21" width="7" height="13" transform="matrix(1,0,0,1,0,0)" fill="rgb(255,255,255)"/></g></svg>