<?xml version="1.0" standalone="no"?><!-- Generator: Gravit.io --><svg xmlns="http://www.w3.org/2000/svg" xmlns:xlink="http://www.w3.org/1999/xlink" style="isolation:isolate" viewBox="0 0 1000 1000" width="1000" height="1000"><defs><clipPath id="_clipPath_fF8dU39p5Yy3UyEUqS1Qs2z3kWmO2BJE"><rect width="1000" height="1000"/></clipPath></defs><g clip-path="url(#_clipPath_fF8dU39p5Yy3UyEUqS1Qs2z3kWmO2BJE)"><rect x="0" y="0" width="1000" height="1000" transform="matrix(1,0,0,1,0,0)" fill="rgb(249,249,249)"/><path d=" M 412.5 136.5 L 588 137 L 830 863 L 651.5 863.5 C 644.638 852.188 641.32 839.066 640 826 L 612.5 727.5 L 387 728 C 376.11 773.687 363.356 818.94 348.5 863.5 L 170 863 L 412.5 136.5 Z  M 375 500 C 375 431.011 431.011 375 500 375 C 568.989 375 625 431.011 625 500 C 625 568.989 568.989 625 500 625 C 431.011 625 375 568.989 375 500 Z  M 437.5 500 C 437.5 465.505 465.505 437.5 500 437.5 C 534.495 437.5 562.5 465.505 562.5 500 C 562.5 534.495 534.495 562.5 500 562.5 C 465.505 562.5 437.5 534.495 437.5 500 Z " fill-rule="evenodd" fill="rgb(247,74,77)"/></g></svg>