<?xml version="1.0" standalone="no"?><!-- Generator: Gravit.io --><svg xmlns="http://www.w3.org/2000/svg" xmlns:xlink="http://www.w3.org/1999/xlink" style="isolation:isolate" viewBox="0 0 32 32" width="32" height="32"><defs><clipPath id="_clipPath_d502MwxBt2dY0mHA9zNs1ryijZaGRUBG"><rect width="32" height="32"/></clipPath></defs><g clip-path="url(#_clipPath_d502MwxBt2dY0mHA9zNs1ryijZaGRUBG)"><rect x="0" y="0" width="32" height="32" transform="matrix(1,0,0,1,0,0)" fill="rgb(249,249,249)"/><path d=" M 12.871 3 L 19.147 3.018 L 27.802 28.982 L 21.418 29 C 21.173 28.595 21.054 28.126 21.007 27.659 L 20.023 24.136 L 11.959 24.154 C 11.569 25.788 11.113 27.406 10.582 29 L 4.198 28.982 L 12.871 3 Z  M 11.53 16 C 11.53 13.533 13.533 11.53 16 11.53 C 18.467 11.53 20.47 13.533 20.47 16 C 20.47 18.467 18.467 20.47 16 20.47 C 13.533 20.47 11.53 18.467 11.53 16 Z  M 13.765 16 C 13.765 14.766 14.766 13.765 16 13.765 C 17.234 13.765 18.235 14.766 18.235 16 C 18.235 17.234 17.234 18.235 16 18.235 C 14.766 18.235 13.765 17.234 13.765 16 Z " fill-rule="evenodd" fill="rgb(247,74,77)"/></g></svg>