<svg xmlns="http://www.w3.org/2000/svg" style="isolation:isolate" viewBox="0 0 32 32" width="32" height="32"><defs><clipPath id="a"><path d="M0 0h32v32H0z"/></clipPath></defs><g clip-path="url(#a)"><path fill="#F9F9F9" d="M0 0h32v32H0z"/><path d="M12.87 3l6.277.018 8.655 25.964-6.384.018c .095-.405-.364-.874-.41-1.34l-1.341-3.524-8.064.018c-.39 1.634-.847 3.252-1.378 4.846l-6.384-.018L12.87 3zm-1.34 13c0-2.467 2.003-4.47 4.47-4.47 2.467 0 4.47 2.003 4.47 4.47 0 2.467-2.003 4.47-4.47 4.47-2.467 0-4.47-2.003-4.47-4.47zm2.235 0c0-1.234 1-2.235 2.235-2.235 1.234 0 2.235 1 2.235 2.235 0 1.234-1 2.235-2.235 2.235-1.234 0-2.235-1-2.235-2.235z" fill-rule="evenodd" fill="#F74A4D"/></g></svg>
