<?xml version="1.0" standalone="no"?><!-- Generator: Gravit.io --><svg xmlns="http://www.w3.org/2000/svg" xmlns:xlink="http://www.w3.org/1999/xlink" style="isolation:isolate" viewBox="0 0 1024 1024" width="1024" height="1024"><defs><clipPath id="_clipPath_6m4npPCLStCFzV3W65ZtGsPzFPjkzRNH"><rect width="1024" height="1024"/></clipPath></defs><g clip-path="url(#_clipPath_6m4npPCLStCFzV3W65ZtGsPzFPjkzRNH)"><rect width="1024" height="1024" style="fill:rgb(0,0,0)"/><rect x="0" y="0" width="1024" height="1024" transform="matrix(1,0,0,1,0,0)" fill="rgb(39,39,39)"/><rect x="32" y="992" width="992" height="32" transform="matrix(1,0,0,1,0,0)" fill="rgb(0,0,0)"/><rect x="528" y="528" width="960" height="32" transform="matrix(0,-1,1,0,464,1552)" fill="rgb(0,0,0)"/><rect x="-416" y="480" width="928" height="32" transform="matrix(0,-1,1,0,-448,544)" fill="rgb(255,255,255)"/><rect x="64" y="32" width="192" height="32" transform="matrix(-1,0,0,-1,320,96)" fill="rgb(255,255,255)"/><rect x="288" y="32" width="704" height="32" transform="matrix(-1,0,0,-1,1280,96)" fill="rgb(70,70,70)"/><rect x="64" y="64" width="192" height="544" transform="matrix(1,0,0,1,0,0)" fill="rgb(255,203,152)"/><rect x="64" y="608" width="96" height="192" transform="matrix(1,0,0,1,0,0)" fill="rgb(255,203,152)"/><rect x="32" y="960" width="32" height="32" transform="matrix(1,0,0,1,0,0)" fill="rgb(255,203,152)"/><rect x="64" y="800" width="64" height="160" transform="matrix(1,0,0,1,0,0)" fill="rgb(255,203,152)"/><rect x="64" y="864" width="128" height="96" transform="matrix(1,0,0,1,0,0)" fill="rgb(255,203,152)"/><rect x="160" y="672" width="32" height="128" transform="matrix(1,0,0,1,0,0)" fill="rgb(255,203,152)"/><rect x="256" y="32" width="32" height="32" transform="matrix(1,0,0,1,0,0)" fill="rgb(255,203,152)"/><rect x="256" y="64" width="32" height="576" transform="matrix(1,0,0,1,0,0)" fill="rgb(203,152,102)"/><rect x="192" y="672" width="32" height="160" transform="matrix(1,0,0,1,0,0)" fill="rgb(203,152,102)"/><rect x="192" y="864" width="32" height="128" transform="matrix(1,0,0,1,0,0)" fill="rgb(203,152,102)"/><rect x="112" y="912" width="32" height="128" transform="matrix(0,-1,1,0,-848,1104)" fill="rgb(203,152,102)"/><rect x="144" y="784" width="32" height="64" transform="matrix(0,-1,1,0,-656,976)" fill="rgb(203,152,102)"/><rect x="192" y="576" width="32" height="96" transform="matrix(0,-1,1,0,-416,832)" fill="rgb(203,152,102)"/><rect x="96" y="160" width="32" height="128" transform="matrix(1,0,0,1,0,0)" fill="rgb(203,152,102)"/><rect x="160" y="192" width="32" height="128" transform="matrix(1,0,0,1,0,0)" fill="rgb(255,255,255)"/><rect x="128" y="288" width="32" height="32" transform="matrix(1,0,0,1,0,0)" fill="rgb(255,255,255)"/><rect x="128" y="192" width="32" height="96" transform="matrix(1,0,0,1,0,0)" fill="rgb(0,0,0)"/><rect x="128" y="160" width="32" height="32" transform="matrix(1,0,0,1,0,0)" fill="rgb(203,152,102)"/></g></svg>