<?xml version="1.0" standalone="no"?><!-- Generator: Gravit.io --><svg xmlns="http://www.w3.org/2000/svg" xmlns:xlink="http://www.w3.org/1999/xlink" style="isolation:isolate" viewBox="0 0 1024 1024" width="1024" height="1024"><defs><clipPath id="_clipPath_65LI3I2zzJYgEXKMO1BmBelu5jsxq2WE"><rect width="1024" height="1024"/></clipPath></defs><g clip-path="url(#_clipPath_65LI3I2zzJYgEXKMO1BmBelu5jsxq2WE)"><rect width="1024" height="1024" style="fill:rgb(0,0,0)"/><g id="Group"><rect x="0" y="0" width="1024" height="1024" transform="matrix(1,0,0,1,0,0)" fill="rgb(39,39,39)"/><path d=" M 32 992 L 1024 992 L 1024 1024 L 32 1024 L 32 992 Z  M 992 1024 L 992 64 L 1024 64 L 1024 1024 L 992 1024 Z " fill-rule="evenodd" fill="rgb(0,0,0)"/><rect x="288" y="32" width="704" height="32" transform="matrix(-1,0,0,-1,1280,96)" fill="rgb(70,70,70)"/></g><g id="Group"><path d=" M 256 64 L 288 64 L 288 640 L 256 640 L 256 64 Z  M 192 864 L 224 864 L 224 992 L 192 992 L 192 864 Z  M 64 992 L 64 960 L 192 960 L 192 992 L 64 992 Z  M 128 832 L 128 800 L 192 800 L 192 832 L 128 832 Z  M 160 640 L 160 608 L 256 608 L 256 640 L 160 640 Z  M 192 672 L 224 672 L 224 832 L 192 832 L 192 672 Z " fill-rule="evenodd" fill="rgb(203,152,102)"/><path d=" M 128 864 L 192 864 L 192 960 L 128 960 L 128 864 Z  M 160 672 L 192 672 L 192 800 L 160 800 L 160 672 Z  M 64 64 L 256 64 L 256 608 L 64 608 L 64 64 Z  M 64 608 L 160 608 L 160 800 L 64 800 L 64 608 Z  M 32 960 L 64 960 L 64 992 L 32 992 L 32 960 Z  M 64 800 L 128 800 L 128 960 L 64 960 L 64 800 Z  M 256 32 L 288 32 L 288 64 L 256 64 L 256 32 Z " fill-rule="evenodd" fill="rgb(255,203,152)"/><path d=" M 32 960 L 32 32 L 64 32 L 64 960 L 32 960 Z  M 256 64 L 64 64 L 64 32 L 256 32 L 256 64 Z " fill-rule="evenodd" fill="rgb(255,255,255)"/><path d=" M 160 192 L 192 192 L 192 320 L 160 320 L 160 192 Z  M 128 288 L 160 288 L 160 320 L 128 320 L 128 288 Z " fill-rule="evenodd" fill="rgb(255,255,255)"/><rect x="128" y="192" width="32" height="96" transform="matrix(1,0,0,1,0,0)" fill="rgb(0,0,0)"/><path d=" M 96 160 L 128 160 L 128 288 L 96 288 L 96 160 Z  M 128 160 L 160 160 L 160 192 L 128 192 L 128 160 Z " fill-rule="evenodd" fill="rgb(203,152,102)"/></g><g id="Group"><path d=" M 928 352 L 960 352 L 960 704 L 928 704 L 928 352 Z  M 896 288 L 928 288 L 928 352 L 896 352 L 896 288 Z  M 864 256 L 896 256 L 896 288 L 864 288 L 864 256 Z  M 832 224 L 864 224 L 864 256 L 832 256 L 832 224 Z  M 544 160 L 576 160 L 576 192 L 544 192 L 544 160 Z  M 480 192 L 512 192 L 512 224 L 480 224 L 480 192 Z  M 448 224 L 480 224 L 480 256 L 448 256 L 448 224 Z  M 416 256 L 448 256 L 448 288 L 416 288 L 416 256 Z  M 384 320 L 416 320 L 416 352 L 384 352 L 384 320 Z  M 288 864 L 288 832 L 768 832 L 768 864 L 288 864 Z  M 320 832 L 320 800 L 352 800 L 352 832 L 320 832 Z  M 352 800 L 352 768 L 384 768 L 384 800 L 352 800 Z  M 800 832 L 800 800 L 864 800 L 864 832 L 800 832 Z  M 864 800 L 864 768 L 896 768 L 896 800 L 864 800 Z  M 896 768 L 896 736 L 928 736 L 928 768 L 896 768 Z " fill-rule="evenodd" fill="rgb(102,102,203)"/><path d=" M 768 832 L 864 832 L 864 864 L 768 864 L 768 832 Z  M 864 800 L 896 800 L 896 832 L 864 832 L 864 800 Z  M 896 768 L 928 768 L 928 800 L 896 800 L 896 768 Z  M 928 704 L 960 704 L 960 736 L 928 736 L 928 704 Z  M 768 160 L 832 160 L 832 192 L 768 192 L 768 160 Z  M 832 192 L 864 192 L 864 224 L 832 224 L 832 192 Z  M 864 224 L 896 224 L 896 256 L 864 256 L 864 224 Z  M 896 256 L 928 256 L 928 288 L 896 288 L 896 256 Z  M 928 320 L 960 320 L 960 352 L 928 352 L 928 320 Z " fill-rule="evenodd" fill="rgb(54,54,102)"/><path d=" M 864 704 L 928 704 L 928 736 L 864 736 L 864 704 Z  M 896 352 L 928 352 L 928 704 L 896 704 L 896 352 Z  M 864 288 L 896 288 L 896 320 L 864 320 L 864 288 Z  M 832 256 L 864 256 L 864 288 L 832 288 L 832 256 Z  M 800 224 L 832 224 L 832 256 L 800 256 L 800 224 Z  M 736 160 L 768 160 L 768 192 L 736 192 L 736 160 Z  M 768 192 L 832 192 L 832 224 L 768 224 L 768 192 Z  M 832 736 L 896 736 L 896 768 L 832 768 L 832 736 Z  M 800 768 L 864 768 L 864 800 L 800 800 L 800 768 Z  M 416 800 L 800 800 L 800 832 L 416 832 L 416 800 Z " fill-rule="evenodd" fill="rgb(152,152,255)"/><path d=" M 576 384 L 800 384 L 800 768 L 576 768 L 576 384 Z  M 576 256 L 832 256 L 832 768 L 576 768 L 576 256 Z  M 544 256 L 576 256 L 576 288 L 544 288 L 544 256 Z  M 480 352 L 576 352 L 576 384 L 480 384 L 480 352 Z  M 480 320 L 576 320 L 576 352 L 480 352 L 480 320 Z  M 512 288 L 576 288 L 576 320 L 512 320 L 512 288 Z  M 576 224 L 800 224 L 800 256 L 576 256 L 576 224 Z  M 448 384 L 800 384 L 800 800 L 448 800 L 448 384 Z  M 832 288 L 864 288 L 864 736 L 832 736 L 832 288 Z  M 864 320 L 896 320 L 896 704 L 864 704 L 864 320 Z  M 384 352 L 416 352 L 416 832 L 384 832 L 384 352 Z  M 352 800 L 384 800 L 384 832 L 352 832 L 352 800 Z  M 736 192 L 768 192 L 768 224 L 736 224 L 736 192 Z  M 512 192 L 544 192 L 544 224 L 512 224 L 512 192 Z  M 480 224 L 512 224 L 512 256 L 480 256 L 480 224 Z  M 448 256 L 480 256 L 480 288 L 448 288 L 448 256 Z  M 416 288 L 448 288 L 448 320 L 416 320 L 416 288 Z  M 576 160 L 736 160 L 736 192 L 576 192 L 576 160 Z " fill-rule="evenodd" fill="rgb(203,203,255)"/><path d=" M 416 320 L 448 320 L 448 800 L 416 800 L 416 320 Z  M 448 288 L 480 288 L 480 384 L 448 384 L 448 288 Z  M 480 256 L 512 256 L 512 320 L 480 320 L 480 256 Z  M 512 224 L 544 224 L 544 288 L 512 288 L 512 224 Z  M 544 192 L 576 192 L 576 256 L 544 256 L 544 192 Z  M 576 192 L 736 192 L 736 224 L 576 224 L 576 192 Z " fill-rule="evenodd" fill="rgb(255,255,255)"/><path d=" M 480 384 L 576 384 L 576 416 L 480 416 L 480 384 Z  M 480 480 L 576 480 L 576 512 L 480 512 L 480 480 Z  M 480 576 L 576 576 L 576 608 L 480 608 L 480 576 Z  M 480 672 L 608 672 L 608 704 L 480 704 L 480 672 Z  M 640 672 L 736 672 L 736 704 L 640 704 L 640 672 Z  M 768 672 L 832 672 L 832 704 L 768 704 L 768 672 Z  M 608 480 L 704 480 L 704 512 L 608 512 L 608 480 Z  M 736 480 L 768 480 L 768 512 L 736 512 L 736 480 Z  M 608 576 L 640 576 L 640 608 L 608 608 L 608 576 Z  M 608 384 L 704 384 L 704 416 L 608 416 L 608 384 Z  M 736 384 L 832 384 L 832 416 L 736 416 L 736 384 Z  M 672 576 L 768 576 L 768 608 L 672 608 L 672 576 Z  M 800 480 L 832 480 L 832 512 L 800 512 L 800 480 Z " fill-rule="evenodd" fill="rgb(0,0,0)"/></g></g></svg>