<?xml version="1.0" standalone="no"?><!-- Generator: Gravit.io --><svg xmlns="http://www.w3.org/2000/svg" xmlns:xlink="http://www.w3.org/1999/xlink" style="isolation:isolate" viewBox="0 0 29 30" width="29" height="30"><defs><clipPath id="_clipPath_5urXavpdRdUiIrvac6CZju6dmTuOfrqq"><rect width="29" height="30"/></clipPath></defs><g clip-path="url(#_clipPath_5urXavpdRdUiIrvac6CZju6dmTuOfrqq)"><rect width="29" height="30" style="fill:rgb(0,0,0)"/><linearGradient id="_lgradient_0" x1="49.999999999999986%" y1="100%" x2="49.99999999999999%" y2="0%"><stop offset="0%" stop-opacity="1" style="stop-color:rgb(255,0,0)"/><stop offset="100%" stop-opacity="1" style="stop-color:rgb(255,255,0)"/></linearGradient><rect x="0" y="0" width="29" height="30" transform="matrix(1,0,0,1,0,0)" fill="url(#_lgradient_0)"/><linearGradient id="_lgradient_1" x1="49.999999999999986%" y1="100%" x2="49.99999999999999%" y2="0%"><stop offset="0%" stop-opacity="1" style="stop-color:rgb(0,0,255)"/><stop offset="100%" stop-opacity="1" style="stop-color:rgb(0,255,0)"/></linearGradient><path d=" M 1 18 L 5 18 L 5 29 L 1 29 L 1 18 Z  M 1 1 L 7 1 L 7 18 L 1 18 L 1 1 Z " fill-rule="evenodd" fill="url(#_lgradient_1)"/><linearGradient id="_lgradient_2" x1="50%" y1="100%" x2="50.000000000000036%" y2="0%"><stop offset="0%" stop-opacity="1" style="stop-color:rgb(0,0,255)"/><stop offset="99.56521739130434%" stop-opacity="1" style="stop-color:rgb(153,0,255)"/></linearGradient><path d=" M 26 7.001 L 25.001 7.001 L 25.001 6.001 L 25.001 5.001 L 26 5.001 L 26 5 L 15.001 5 L 14.001 5 L 13 5 L 13 8 L 26 8 L 26 7.001 Z  M 14.001 5.001 L 13.003 5.001 L 13.003 7.001 L 14.003 7.001 L 14.003 6 L 14.001 6 L 14.001 5.001 Z  M 14.003 5.003 L 14.004 5.003 L 14.004 6.001 L 15.003 6.001 L 15.003 5.001 L 14.003 5.001 L 14.003 5.003 Z  M 12 8 L 12 25 L 26 25 L 26 8 L 12 8 Z  M 13.001 9.001 L 13.001 8.001 L 12.001 8.001 L 12.001 9.001 L 13.001 9.001 Z  M 9 24 L 9 25 L 10 25 L 10 24 L 9 24 Z  M 28 8.003 L 28 8 L 26 8 L 26 23 L 28 23 L 28 10.001 L 27.001 10.001 L 27.001 8.003 L 28 8.003 Z  M 10 23 L 10 25 L 12 25 L 12 23 L 10 23 Z  M 24.001 6.001 L 25.001 6.001 L 25.001 5.001 L 24.001 5.001 L 24.001 6.001 Z " fill-rule="evenodd" fill="url(#_lgradient_2)"/><linearGradient id="_lgradient_3" x1="50.000000000000014%" y1="0%" x2="49.99999999999999%" y2="100%"><stop offset="0%" stop-opacity="1" style="stop-color:rgb(209,209,209)"/><stop offset="100%" stop-opacity="1" style="stop-color:rgb(255,255,255)"/></linearGradient><path d=" M 9 24 L 10 24 L 10 25 L 9 25 L 9 24 Z  M 24 24 L 25 24 L 25 25 L 24 25 L 24 24 Z  M 5 25 L 5 24 L 6 24 L 6 25 L 5 25 L 5 25 Z  M 26 24 L 26 25 L 27 25 L 27 24 L 26 24 L 26 24 Z  M 27 23 L 27 24 L 28 24 L 28 23 L 27 23 L 27 23 Z  M 28 21 L 28 22 L 29 22 L 29 21 L 28 21 L 28 21 Z  M 23 4 L 23 5 L 25 5 L 25 4 L 23 4 L 23 4 Z  M 25 5 L 25 6 L 26 6 L 26 5 L 25 5 L 25 5 Z  M 26 6 L 26 7 L 27 7 L 27 6 L 26 6 L 26 6 Z  M 27 7 L 27 8 L 28 8 L 28 7 L 27 7 L 27 7 Z  M 28 9 L 28 10 L 29 10 L 29 9 L 28 9 L 28 9 Z  M 14 11 L 14 12 L 17 12 L 17 11 L 14 11 L 14 11 Z  M 14 14 L 14 15 L 17 15 L 17 14 L 14 14 L 14 14 Z  M 14 17 L 14 18 L 17 18 L 17 17 L 14 17 L 14 17 Z  M 14 20 L 14 21 L 18 21 L 18 20 L 14 20 L 14 20 Z  M 19 20 L 19 21 L 22 21 L 22 20 L 19 20 L 19 20 Z  M 23 20 L 23 21 L 25 21 L 25 20 L 23 20 L 23 20 Z  M 18 14 L 18 15 L 21 15 L 21 14 L 18 14 L 18 14 Z  M 22 14 L 22 15 L 23 15 L 23 14 L 22 14 L 22 14 Z  M 18 17 L 18 18 L 19 18 L 19 17 L 18 17 L 18 17 Z  M 18 11 L 18 12 L 21 12 L 21 11 L 18 11 L 18 11 Z  M 22 11 L 22 12 L 25 12 L 25 11 L 22 11 L 22 11 Z  M 20 17 L 20 18 L 23 18 L 23 17 L 20 17 L 20 17 Z  M 24 14 L 24 15 L 25 15 L 25 14 L 24 14 L 24 14 Z  M 7 0 L 7 1 L 8 1 L 8 0 L 7 0 L 7 0 Z  M 0 29 L 0 30 L 1 30 L 1 29 L 0 29 L 0 29 Z  M 17 4 L 17 5 L 23 5 L 23 4 L 17 4 L 17 4 Z  M 11 23 L 12 23 L 12 10 L 11 10 L 11 23 L 11 23 Z  M 15 5 L 16 5 L 16 4 L 15 4 L 15 5 L 15 5 Z  M 12 9 L 13 9 L 13 8 L 12 8 L 12 9 L 12 9 Z  M 5 20 L 6 20 L 6 19 L 5 19 L 5 20 L 5 20 Z  M 10 23 L 11 23 L 11 22 L 10 22 L 10 23 L 10 23 Z  M 9 24 L 10 24 L 10 23 L 9 23 L 9 24 L 9 24 Z  M 27 23 L 28 23 L 28 22 L 27 22 L 27 23 L 27 23 Z  M 28 23 L 29 23 L 29 22 L 28 22 L 28 23 L 28 23 Z  M 24 6 L 25 6 L 25 5 L 24 5 L 24 6 L 24 6 Z  M 14 5 L 15 5 L 15 4 L 14 4 L 14 5 L 14 5 Z  M 13 6 L 14 6 L 14 5 L 13 5 L 13 6 L 13 6 Z  M 12 7 L 13 7 L 13 6 L 12 6 L 12 7 L 12 7 Z  M 11 9 L 12 9 L 12 8 L 11 8 L 11 9 L 11 9 Z  M 5 26 L 6 26 L 6 25 L 5 25 L 5 26 L 5 26 Z  M 7 1 L 7 19 L 8 19 L 8 1 L 7 1 L 7 1 Z  M 5 26 L 5 30 L 6 30 L 6 26 L 5 26 L 5 26 Z  M 1 30 L 5 30 L 5 29 L 1 29 L 1 30 L 1 30 Z  M 3 25 L 5 25 L 5 24 L 3 24 L 3 25 L 3 25 Z  M 4 19 L 7 19 L 7 18 L 4 18 L 4 19 L 4 19 Z  M 5 20 L 5 25 L 6 25 L 6 24 L 6 20 L 5 20 L 5 20 Z  M 0 29 L 1 29 L 1 0 L 0 0 L 0 29 L 0 29 Z  M 7 1 L 7 0 L 1 0 L 1 1 L 7 1 L 7 1 Z  M 3 5 L 3 8 L 4 8 L 4 5 L 3 5 L 3 5 Z  M 28 10 L 28 21 L 29 21 L 29 10 L 28 10 L 28 10 Z  M 27 8 L 27 10 L 28 10 L 28 8 L 27 8 L 27 8 Z  M 26 7 L 26 8 L 27 8 L 27 7 L 26 7 L 26 7 Z  M 25 6 L 25 7 L 26 7 L 26 6 L 25 6 L 25 6 Z  M 16 4 L 16 5 L 17 5 L 17 4 L 16 4 L 16 4 Z  M 14 5 L 14 6 L 15 6 L 15 5 L 14 5 L 14 5 Z  M 13 6 L 13 7 L 14 7 L 14 6 L 13 6 L 13 6 Z  M 12 7 L 12 8 L 13 8 L 13 7 L 12 7 L 12 7 Z  M 11 9 L 11 10 L 12 10 L 12 9 L 11 9 L 11 9 Z  M 8 26 L 23 26 L 23 25 L 8 25 L 8 26 L 8 26 Z  M 9 25 L 10 25 L 10 24 L 9 24 L 9 25 L 9 25 Z  M 10 24 L 11 24 L 11 23 L 10 23 L 10 24 L 10 24 Z  M 24 25 L 23 25 L 23 25 L 23 26 L 26 26 L 26 25 L 25 25 L 24 25 L 24 25 Z  M 24 25 L 26 25 L 26 24 L 25 24 L 24 24 L 24 25 L 24 25 Z  M 26 24 L 27 24 L 27 23 L 26 23 L 26 24 L 26 24 Z  M 8 25 L 9 25 L 9 24 L 8 24 L 8 25 L 8 25 Z " fill-rule="evenodd" fill="url(#_lgradient_3)" style="mix-blend-mode:linear_dodge;"/></g></svg>