<?xml version="1.0" standalone="no"?><!-- Generator: Gravit.io --><svg xmlns="http://www.w3.org/2000/svg" xmlns:xlink="http://www.w3.org/1999/xlink" style="isolation:isolate" viewBox="0 0 32 32" width="32" height="32"><defs><clipPath id="_clipPath_nJWz43AYnkc4VVqXQPYmviT5Gz71i8hA"><rect width="32" height="32"/></clipPath></defs><g clip-path="url(#_clipPath_nJWz43AYnkc4VVqXQPYmviT5Gz71i8hA)"><clipPath id="_clipPath_lCeWMRFd0fFkIazHVrREpdMdimNQj6qt"><rect x="0" y="0" width="32" height="32" transform="matrix(1,0,0,1,0,0)" fill="rgb(255,255,255)"/></clipPath><g clip-path="url(#_clipPath_lCeWMRFd0fFkIazHVrREpdMdimNQj6qt)"><g id="Group"><clipPath id="_clipPath_VjXFoWH9AGXmt68k8vyFMjs0fZMuXjN0"><path d=" M 0 0 L 32 0 L 32 32 L 0 32 L 0 0 Z " fill="rgb(255,255,255)"/></clipPath><g clip-path="url(#_clipPath_VjXFoWH9AGXmt68k8vyFMjs0fZMuXjN0)"><g id="Group"><g id="Group"><path d=" M 12.962 1 L 19.038 1 C 19.59 1 20.17 1.428 20.333 1.956 L 28.975 30.044 C 29.137 30.572 28.821 31 28.269 31 L 22.192 31 C 21.64 31 21.084 30.565 20.95 30.03 L 20.038 26.385 L 11.962 26.385 L 11.05 30.03 C 10.916 30.565 10.36 31 9.808 31 L 3.731 31 C 3.179 31 2.863 30.572 3.025 30.044 L 11.667 1.956 C 11.83 1.428 12.41 1 12.962 1 Z  M 10.808 16 C 10.808 13.134 13.134 10.808 16 10.808 C 18.866 10.808 21.192 13.134 21.192 16 C 21.192 18.866 18.866 21.192 16 21.192 C 13.134 21.192 10.808 18.866 10.808 16 Z  M 13.404 16 C 13.404 14.566 14.575 13.404 16 13.404 C 17.425 13.404 18.596 14.566 18.596 16 C 18.596 17.434 17.425 18.596 16 18.596 C 14.575 18.596 13.404 17.434 13.404 16 Z " fill-rule="evenodd" fill="rgb(247,74,77)"/></g></g></g></g></g></g></svg>