<?xml version="1.0" standalone="no"?><!-- Generator: Gravit.io --><svg xmlns="http://www.w3.org/2000/svg" xmlns:xlink="http://www.w3.org/1999/xlink" style="isolation:isolate" viewBox="0 0 32 32" width="32" height="32"><defs><clipPath id="_clipPath_vOX2F8NcOiPjUJGi6GnGydcQsJiCA1Ui"><rect width="32" height="32"/></clipPath></defs><g clip-path="url(#_clipPath_vOX2F8NcOiPjUJGi6GnGydcQsJiCA1Ui)"><clipPath id="_clipPath_kMVGklvjMiFpMXtBSDdqfsSHBPDV0fr1"><rect x="0" y="0" width="32" height="32" transform="matrix(1,0,0,1,0,0)" fill="rgb(255,255,255)"/></clipPath><g clip-path="url(#_clipPath_kMVGklvjMiFpMXtBSDdqfsSHBPDV0fr1)"><g id="Group"><clipPath id="_clipPath_pYzEDNjQ7guMfyMfxc16CtAR8SuvApNV"><path d=" M 0 0 L 32 0 L 32 32 L 0 32 L 0 0 Z " fill="rgb(255,255,255)"/></clipPath><g clip-path="url(#_clipPath_pYzEDNjQ7guMfyMfxc16CtAR8SuvApNV)"><g id="Group"><g id="Group"><path d=" M 13.231 2 L 18.769 2 C 19.321 2 19.901 2.428 20.063 2.956 L 28.091 29.044 C 28.253 29.572 27.937 30 27.385 30 L 21.846 30 C 21.294 30 20.737 29.565 20.604 29.03 L 19.769 25.692 L 12.231 25.692 L 11.396 29.03 C 11.263 29.565 10.706 30 10.154 30 L 4.615 30 C 4.063 30 3.747 29.572 3.909 29.044 L 11.937 2.956 C 12.099 2.428 12.679 2 13.231 2 Z  M 11.154 16 C 11.154 13.325 13.325 11.154 16 11.154 C 18.675 11.154 20.846 13.325 20.846 16 C 20.846 18.675 18.675 20.846 16 20.846 C 13.325 20.846 11.154 18.675 11.154 16 Z  M 13.577 16 C 13.577 14.661 14.67 13.577 16 13.577 C 17.33 13.577 18.423 14.661 18.423 16 C 18.423 17.339 17.33 18.423 16 18.423 C 14.67 18.423 13.577 17.339 13.577 16 Z " fill-rule="evenodd" fill="rgb(247,74,77)"/></g></g></g></g></g></g></svg>