<?xml version="1.0" standalone="no"?><!-- Generator: Gravit.io --><svg xmlns="http://www.w3.org/2000/svg" xmlns:xlink="http://www.w3.org/1999/xlink" style="isolation:isolate" viewBox="0 0 1000 1000" width="1000" height="1000"><defs><clipPath id="_clipPath_go0sELCwBs92QOBhc7VPVSLoDbbQFilU"><rect width="1000" height="1000"/></clipPath></defs><g clip-path="url(#_clipPath_go0sELCwBs92QOBhc7VPVSLoDbbQFilU)"><clipPath id="_clipPath_wf8dRGLwxYXMSHfx8gOYWxDs6mm5pyHK"><rect x="0" y="0" width="1000" height="1000" transform="matrix(1,0,0,1,0,0)" fill="rgb(255,255,255)"/></clipPath><g clip-path="url(#_clipPath_wf8dRGLwxYXMSHfx8gOYWxDs6mm5pyHK)"><g id="Group"><clipPath id="_clipPath_sv76ivisyGOR3EESOvn7Qn6SjfUXWooV"><rect x="0" y="0" width="1000" height="1000" transform="matrix(1,0,0,1,0,0)" fill="rgb(255,255,255)"/></clipPath><g clip-path="url(#_clipPath_sv76ivisyGOR3EESOvn7Qn6SjfUXWooV)"><g id="Group"><g id="Group"><path d=" M 52.722 705.684 C -63.903 455.581 44.464 157.846 294.567 41.221 C 544.67 -75.404 842.405 32.963 959.03 283.066 C 1075.655 533.169 967.288 830.904 717.185 947.529 C 467.082 1064.154 169.347 955.787 52.722 705.684 Z " fill-rule="evenodd" fill="rgb(0,0,0)"/><path d=" M 171.891 291.84 L 591.467 96.188 C 606.473 89.191 617.039 96.854 615.047 113.292 L 531.896 799.527 C 530.9 807.746 536.183 811.578 543.686 808.079 L 644.266 761.179 L 644.266 761.179 Q 725.25 723.416 752.809 698.174 L 752.809 698.174 L 752.809 698.174 Q 798.041 657.686 816.186 597.234 L 816.186 597.234 L 816.186 597.234 Q 834.33 536.784 815.504 458.284 L 815.504 458.284 L 819.168 456.575 C 826.671 453.076 834.906 456.606 837.546 464.452 L 899.971 649.992 C 905.251 665.685 897.355 684.107 882.349 691.104 L 387.101 922.042 C 372.095 929.039 361.527 921.375 363.516 904.938 L 446.703 217.613 C 447.697 209.394 442.413 205.562 434.91 209.061 L 359.555 244.199 L 359.555 244.199 Q 307.779 268.343 292.85 279.076 L 292.85 279.076 L 292.85 279.076 Q 264.555 299.273 245.284 329.002 L 245.284 329.002 L 245.284 329.002 Q 226.013 358.73 221.297 395.41 L 221.297 395.41 L 221.297 395.41 Q 216.581 432.09 226.626 480.205 L 226.626 480.205 L 223.847 481.5 C 216.343 484.999 207.989 481.511 205.201 473.715 L 154.803 332.767 C 149.228 317.176 156.885 298.837 171.891 291.84 Z " fill-rule="evenodd" fill="rgb(255,255,255)"/><g style="mix-blend-mode:multiply;"><linearGradient id="_lgradient_0" x1="50%" y1="100%" x2="50.000000000000014%" y2="0%"><stop offset="2.1739130434782608%" stop-opacity="1" style="stop-color:rgb(32,132,238)"/><stop offset="100%" stop-opacity="1" style="stop-color:rgb(89,0,255)"/></linearGradient><path d=" M 605.878 708.83 C 561.561 613.791 602.74 500.651 697.779 456.334 C 792.818 412.017 905.958 453.196 950.275 548.235 C 994.592 643.274 953.413 756.414 858.374 800.731 C 763.335 845.048 650.195 803.869 605.878 708.83 Z " fill="url(#_lgradient_0)"/></g><g style="mix-blend-mode:multiply;"><linearGradient id="_lgradient_1" x1="50%" y1="100%" x2="50.00000000000012%" y2="0%"><stop offset="2.1739130434782608%" stop-opacity="1" style="stop-color:rgb(176,57,255)"/><stop offset="97.3913043478261%" stop-opacity="1" style="stop-color:rgb(236,23,23)"/></linearGradient><path d=" M 312.159 868.965 C 267.841 773.926 309.021 660.786 404.06 616.469 C 499.099 572.151 612.238 613.331 656.556 708.37 C 700.873 803.408 659.694 916.548 564.655 960.866 C 469.616 1005.183 356.476 964.003 312.159 868.965 Z " fill="url(#_lgradient_1)"/></g><g style="mix-blend-mode:multiply;"><linearGradient id="_lgradient_2" x1="14.6446609406726%" y1="85.35533905932735%" x2="85.3553390593266%" y2="14.644660940671839%"><stop offset="1.3043478260869565%" stop-opacity="1" style="stop-color:rgb(255,160,35)"/><stop offset="98.26086956521739%" stop-opacity="1" style="stop-color:rgb(236,23,23)"/></linearGradient><path d=" M 327.48 566.115 C 293.892 494.085 343.783 399.626 438.822 355.309 C 533.861 310.992 638.289 333.49 671.877 405.52 C 705.465 477.549 655.575 572.008 560.536 616.326 C 465.497 660.643 361.068 638.144 327.48 566.115 Z " fill="url(#_lgradient_2)"/></g><g style="mix-blend-mode:multiply;"><linearGradient id="_lgradient_3" x1="14.644660940672638%" y1="85.35533905932739%" x2="85.35533905932712%" y2="14.64466094067236%"><stop offset="1.3043478260869565%" stop-opacity="1" style="stop-color:rgb(251,251,66)"/><stop offset="98.69565217391305%" stop-opacity="1" style="stop-color:rgb(247,132,33)"/></linearGradient><path d=" M 296.121 271.571 C 251.804 176.532 292.983 63.393 388.022 19.075 C 483.061 -25.242 596.201 15.937 640.518 110.976 C 684.836 206.015 643.656 319.155 548.617 363.472 C 453.578 407.79 340.439 366.61 296.121 271.571 Z " fill="url(#_lgradient_3)"/></g><g style="mix-blend-mode:multiply;"><linearGradient id="_lgradient_4" x1="14.644660940672644%" y1="85.35533905932738%" x2="85.35533905932742%" y2="14.64466094067265%"><stop offset="1.3043478260869565%" stop-opacity="1" style="stop-color:rgb(230,238,72)"/><stop offset="97.82608695652173%" stop-opacity="1" style="stop-color:rgb(72,249,99)"/></linearGradient><path d=" M 51.501 492.197 C 7.184 397.159 48.364 284.019 143.402 239.702 C 238.441 195.384 351.581 236.564 395.898 331.603 C 440.216 426.641 399.036 539.781 303.997 584.098 C 208.958 628.416 95.819 587.236 51.501 492.197 Z " fill="url(#_lgradient_4)"/></g></g></g></g></g></g></g></svg>